<svg xmlns="http://www.w3.org/2000/svg" viewBox="0 0 600.7 136"><defs><style>.cls-1{fill:#fff;}.cls-2{fill:#0071b6;}.cls-3{fill:#00aadf;}.cls-4{fill:#de2a1c;}.cls-5{fill:#ffdf00;}</style></defs><title>logo</title><g id="Calque_2" data-name="Calque 2"><g id="Calque_1-2" data-name="Calque 1"><rect class="cls-1" x="21.54" y="5.77" width="127.34" height="128.03"/><rect class="cls-2" x="24.08" y="8.31" width="122.27" height="122.27"/><path class="cls-3" d="M35.16,55.46c-19.77,2-29.69,5.21-29.69,5.21s-.3,3.84-1.15,9.08c0,0,13.26-3,21.2-3.81l8.08-3.65Z"/><path class="cls-1" d="M20,74.94c-11.39,2-17.51,3.59-17.51,3.59h0c1-4.69,1.86-8.77,1.86-8.77s13.24-3,21.19-3.82l-5.54,9Z"/><path class="cls-4" d="M20,74.94v9.17s-15.43,3-20,4.34a101.58,101.58,0,0,0,2.47-9.92S8.6,76.92,20,74.94"/><path class="cls-1" d="M34.06,69.35S20.55,68.89,20.65,67a1.24,1.24,0,0,1,.59-1.16c.92-.84,5.75-3,14.84-6.58Z"/><path class="cls-5" d="M85.2,123A53.68,53.68,0,1,0,31.52,69.33,53.67,53.67,0,0,0,85.2,123"/><path class="cls-1" d="M19.52,75.32c.31,1.45,2,1.81,8.09,2.35s25.82.92,49.69-.67c28-1.86,59-10,83.23-17.81-.61,1.61-2.13,5.37-2.71,7.09-.39,1.15-.68,2.21-1,3.3-23.84,7.53-53.63,15.17-80.59,17a345.87,345.87,0,0,1-49.7-.2c-6.05-.54-7.77-.9-8.09-2.35Z"/><path class="cls-3" d="M20.6,66.64c.32,1.44,2,1.81,8.1,2.35s25.81.05,49.69-1.54c29.51-2,62.4-10.94,87.18-19.1h0a85.89,85.89,0,0,0-5,10.84C136.27,67,105.27,75.14,77.3,77c-23.87,1.59-43.63,1.21-49.69.67s-7.78-.9-8.09-2.35Z"/><path class="cls-4" d="M17.35,92.68c.31,1.45,2,1.81,8.09,2.35A303.48,303.48,0,0,0,75.13,96.1c26.38-1.76,55.45-9.11,79-16.48v0a101.14,101.14,0,0,1,2.66-10.06c-23.85,7.53-53.63,15.17-80.59,17a345.87,345.87,0,0,1-49.7-.2c-6.05-.54-7.77-.9-8.09-2.35Z"/><path class="cls-5" d="M85.2,118.81A49.23,49.23,0,1,0,36,69.58,49.23,49.23,0,0,0,85.2,118.81"/><path class="cls-2" d="M70.37,31a637.74,637.74,0,0,0,0,70.57L56.45,105c-1-16.13-2.21-41.95,0-69.24Z"/><path class="cls-2" d="M125.28,78.84S116.83,99.29,82.71,115l-2.4-14.7c18.84-8.9,28.23-21.85,28.23-21.85-5.94-3-20-5.68-29-5.54l0-12.6C94.12,54.81,101,44.64,101,44.64c-4.3-2.39-16.21-3.23-24-1.07l.16-13.74c13-2.16,31.57,1.41,36.16,4.22,0,0,2.72,13.62,2.68,13.91,0,0-6,8.46-13.93,13.41,0,0,11.85,1.6,21.12,6.72,0,0,1.91,10.69,2.06,10.75"/><path class="cls-2" d="M194.68,71.27v6h5c2.83,0,5-.54,5-3,0-2.82-2.68-3-6.34-3Zm0-11.23V65.4h4.78c2.29,0,3.95-.93,3.95-2.81,0-2.51-2.24-2.55-4.68-2.55ZM183.17,84.73V52.52H200c7.9,0,14.19,1.7,14.19,8.1,0,3.31-2.34,5.72-4.58,7A7.3,7.3,0,0,1,215.41,75c0,7.21-6,9.71-15.12,9.71Z"/><path class="cls-2" d="M229.4,68.45c0,4.11,1.37,9.26,6.88,9.26,5,0,6.93-3.94,6.93-9.26,0-4.39-2-9-7-8.91-5.22,0-6.78,4.84-6.78,8.91m25.32,0c0,11-8.05,17.13-18.44,17.13-11,0-18.39-6.26-18.39-17.22,0-10.11,7.46-16.69,18.39-16.69,12.53,0,18.44,8.28,18.44,16.78"/><path class="cls-2" d="M258.42,52.52h11.51V71.8c0,3.18.68,5.91,5.41,5.91,4.15,0,5.37-2.42,5.37-5.91V52.52h11.51V70.73c0,10.33-5.22,14.85-16.88,14.85-10.87,0-16.92-3.8-16.92-14.9Z"/><path class="cls-2" d="M319.33,64.82c-.34-3.35-2.63-5.28-6.24-5.28-4,0-6.49,3.18-6.49,9.4,0,4.52,1.07,8.77,6.93,8.77,3.71,0,5.46-2.37,5.9-5.46H330.5c-1,8.32-7.51,13.33-16.78,13.33-11.61,0-18.63-6.53-18.63-17s7.71-16.91,17.51-16.91c10.73,0,16.73,4.88,17.66,13.15Z"/><polygon class="cls-2" points="333.72 84.73 333.72 52.52 345.23 52.52 345.23 63.39 356.11 63.39 356.11 52.52 367.62 52.52 367.62 84.73 356.11 84.73 356.11 72.25 345.23 72.25 345.23 84.73 333.72 84.73"/><polygon class="cls-2" points="373.07 84.73 373.07 52.52 401.7 52.52 401.7 60.03 384.58 60.03 384.58 64.64 399.07 64.64 399.07 72.16 384.58 72.16 384.58 77.22 402.39 77.22 402.39 84.73 373.07 84.73"/><path class="cls-2" d="M424.67,61.87A2.83,2.83,0,0,0,423,59.68a6.88,6.88,0,0,0-3-.58c-2.54,0-3.66.67-3.66,1.83,0,4.83,20.19,1.84,20.19,13.56,0,7.47-6.78,11.09-16.43,11.09-9.27,0-15.32-5-15.56-10.78h11a3.71,3.71,0,0,0,1.9,2.55,6.74,6.74,0,0,0,3.27.81c2.88,0,4.78-.85,4.78-2.38,0-4.87-20.19-1.52-20.19-13.82,0-6.85,6.44-10.29,15.22-10.29,9.75,0,14.19,4.56,15,10.2Z"/><path class="cls-2" d="M193,122h2.22c4.87,0,7.53-2.6,7.53-8.68,0-6.71-2.17-8.5-7.76-8.5h-2Zm-10.45,7.51V97.26h14c10.27,0,16.65,4.83,16.65,15.44,0,12.12-6.69,16.77-16.92,16.77Z"/><path class="cls-2" d="M216.6,97.26h10.45v19.29c0,3.17.62,5.9,4.92,5.9,3.77,0,4.87-2.42,4.87-5.9V97.26H247.3v18.21c0,10.34-4.74,14.85-15.33,14.85-9.88,0-15.37-3.8-15.37-14.9Z"/><path class="cls-2" d="M277.06,111.17h4.12c3.24,0,5-.8,5-3s-1.77-3.35-4.21-3.35h-4.87Zm0,7.07v11.23H266.61V97.26h15.06c10.63,0,14.13,2.91,14.13,9.17,0,3.72-1.64,6.85-5.36,7.88,3.37,1.25,5.41,2.06,5.41,8.54,0,4.21-.14,5.64,1.1,5.64v1H286.36a21.43,21.43,0,0,1-.53-5.63c0-4.21-.71-5.6-5.58-5.6Z"/><polygon class="cls-2" points="300.8 129.47 300.8 97.26 311.26 97.26 311.26 108.13 321.14 108.13 321.14 97.26 331.59 97.26 331.59 129.47 321.14 129.47 321.14 116.99 311.26 116.99 311.26 129.47 300.8 129.47"/><path class="cls-2" d="M346.21,113.19c0,4.11,1.24,9.26,6.24,9.26,4.52,0,6.29-3.94,6.29-9.26,0-4.39-1.77-9-6.38-8.9s-6.15,4.83-6.15,8.9M349,87.69h7.27l5.4,6.62h-6.55l-2.49-3.4-2.48,3.4h-6.51Zm20.25,25.5c0,11-7.31,17.13-16.75,17.13-10,0-16.7-6.26-16.7-17.22,0-10.11,6.78-16.69,16.7-16.69,11.39,0,16.75,8.28,16.75,16.78"/><polygon class="cls-2" points="394.53 114.84 394.13 107.51 394.13 97.26 404.14 97.26 404.14 129.47 394.35 129.47 382.97 111.93 383.37 119.27 383.37 129.47 373.36 129.47 373.36 97.26 383.15 97.26 394.53 114.84"/><polygon class="cls-2" points="409.94 129.47 409.94 97.26 435.95 97.26 435.95 104.78 420.4 104.78 420.4 109.39 433.55 109.39 433.55 116.9 420.4 116.9 420.4 121.96 436.57 121.96 436.57 129.47 409.94 129.47"/><path class="cls-2" d="M184.14,29.64h4.91a10,10,0,0,0,5.08-1c2.89-1.49,3.61-5.22,3.61-8.2,0-3.2-.69-6.69-3.73-8.33a11,11,0,0,0-5-.82h-4.91Zm-2,1.76V9.51h7.41c2.4,0,4.66.15,6.68,1.64,2.86,2.1,3.61,6.36,3.61,9.28s-.63,6.11-2.62,8.3-4.81,2.67-7.67,2.67Z"/><path class="cls-2" d="M213.33,7.81l3.34-4.23H219l-4.13,4.23Zm-5,23.59V9.51h14.42v1.77H210.35v7.9h11.17v1.76H210.35v8.7H223V31.4Z"/><path class="cls-2" d="M237.82,20c3.83,0,6.2-.79,6.2-4.5,0-2.74-1.74-4.19-5.59-4.19h-5.3V20ZM231.08,31.4V9.51H239c5.63,0,7.07,2.83,7.07,6.11,0,4.9-4.3,6.11-8.3,6.11h-4.64V31.4Z"/><path class="cls-2" d="M255.19,22.77h8.49l-4.25-11.49Zm-5.36,8.63,8.52-21.89h2.32L269,31.4h-2.1l-2.5-6.87h-9.88l-2.55,6.87Z"/><path class="cls-2" d="M284.77,19.7c3,0,5.39-1.28,5.39-4.35,0-3.28-2.53-4.07-5.27-4.07h-6.5V19.7Zm-6.38,1.76V31.4h-2.05V9.51h8.49c4.75,0,7.37,1.71,7.37,5.75,0,2.77-1,4.22-3.52,5.35,2.56.88,2.71,3.62,2.77,5.93.09,3.31.36,4.22.9,4.65v.21H290.1c-.85-1.49-.64-5.59-1-7.27-.48-2.37-2.25-2.67-4.3-2.67Z"/><polygon class="cls-2" points="298.43 9.51 314.2 9.51 314.2 11.28 307.34 11.28 307.34 31.4 305.3 31.4 305.3 11.28 298.43 11.28 298.43 9.51"/><polygon class="cls-2" points="321.61 31.4 321.61 9.51 336.02 9.51 336.02 11.28 323.65 11.28 323.65 19.18 334.82 19.18 334.82 20.94 323.65 20.94 323.65 29.64 336.32 29.64 336.32 31.4 321.61 31.4"/><polygon class="cls-2" points="344.38 31.4 344.38 9.51 347.52 9.51 354.62 28.82 354.68 28.82 361.66 9.51 364.76 9.51 364.76 31.4 362.71 31.4 362.71 11.88 362.65 11.88 355.55 31.4 353.63 31.4 346.49 11.88 346.43 11.88 346.43 31.4 344.38 31.4"/><polygon class="cls-2" points="374.03 31.4 374.03 9.51 388.44 9.51 388.44 11.28 376.07 11.28 376.07 19.18 387.24 19.18 387.24 20.94 376.07 20.94 376.07 29.64 388.74 29.64 388.74 31.4 374.03 31.4"/><polygon class="cls-2" points="398.94 12.31 398.88 12.31 398.88 31.4 396.84 31.4 396.84 9.51 399.15 9.51 411.67 28.63 411.73 28.63 411.73 9.51 413.78 9.51 413.78 31.4 411.4 31.4 398.94 12.31"/><polygon class="cls-2" points="421.15 9.51 436.92 9.51 436.92 11.28 430.06 11.28 430.06 31.4 428.01 31.4 428.01 11.28 421.15 11.28 421.15 9.51"/><path class="cls-2" d="M258.82,118.8h-3.73V107.62h3.73ZM446.87,74.53h-3.73V63.36h3.73Z"/><path class="cls-2" d="M542.67,120c0,3.11,3.9,9.59,4.65,10l.75.44c-.45-.32,0-1.07,0-2.53a21.72,21.72,0,0,0-2.84-7.81c-1.28-1.81-2.43-3.44-2-5.28s-.6-5.3-1.41-6.88c-1.34-2.6-1.43-4.59-1.25-7.47s5-10,6.31-11.62a19,19,0,0,1,6.51-4.14c1.2-.3,6.14-.28,7.29-.57s3.86-3.4,4.39-4.32,3.22-5.66,4.25-6.41,6,.48,6.87.39,4.56-4.09,5.66-5.12a72.2,72.2,0,0,1,7.93-6.44A14.57,14.57,0,0,0,585.53,64a117.62,117.62,0,0,0-9.17,7.82c-1.16,1.18-3.13-1.7-6.16-1.53s-6.69,7.28-8,8.7-4.71,2.65-6.45,2.9-4.77.34-8.74.88-10.88,9.93-10.88,9.93a45.09,45.09,0,0,0,2-9.66,24.57,24.57,0,0,0-1.63-11,16.59,16.59,0,0,1-1.08-8.25,7.65,7.65,0,0,1,2.39-4.81c.76-.69,7.22-3.5,10.12-5a16.81,16.81,0,0,0,5-4.54c1.89-1.85,1.33-11.06,1.82-13.13.37-1.62,2.23-3.63,5.4-6.27,1.43-1.19-.72-8.43-.72-8.43s-.09,4.19,0,6-1.49,2.5-3.16,3.53-2.48,3.44-3.3,5.22-.5,6.58-1,9.5-5,4.48-6.38,5.45-6.09,4.87-9,5.84-4.25.5-4.57.16-1.19-4.66-1.69-7.1c-.72-3.56-2.32-2.57-3.48-2.82s-4.87-3.28-6.32-5A21.7,21.7,0,0,1,517,34.88c-.27-1.68-.82-11-.82-11s-.41,3.29-.56,7.14.21,8.4,1.7,11,6,6.19,9,7.68,2.58,3.21,2.56,5.08a46.31,46.31,0,0,0,.1,7.5c.38,2.25,3,9.08,4,12.26a17,17,0,0,1,.22,7.29c-.56,1.77-1,1.88-1,1.88s-.4-2.5-.7-3.77a1.07,1.07,0,0,0-1.45-.85c-1-.07-1-3.26-.7-4.32s.32-2.5-.38-5-8.15-4.62-9.91-5.12S510.19,62,510.19,62s-2.35-4-3.11-5.74-2-4.32-2.51-4.6a40.35,40.35,0,0,0-4.87-1.45c-1.22-.28-9.39,0-10.68-.52s-4.81-7.19-4.81-7.19,0,1.11,1.36,4.44,3.3,4.32,4.38,4.67,5.92-.22,8.55-.24,4.47,1.51,6,3.22,3.33,7.33,3.33,7.33a27.56,27.56,0,0,0-3.47-.57,24.15,24.15,0,0,0-7.55.18c-3,.68-9.36,5.23-11.21,6.59s-7.84,10.19-7.84,10.19,2.23-1.88,3.25-3,3.35-3.09,4.34-4.09a95.89,95.89,0,0,1,8.22-6.66c1.09-.57,5.32-2,5.32-2,1.54-.43,6.42-.17,7.8.11a60.64,60.64,0,0,1,6.84,2.48c1.16.49,6,2.51,6.59,2.83s3,3.56,4.43,5.59a9.71,9.71,0,0,1,1.69,5.69c-.13,1.08,3.42,9.92,2.47,11.85s-1.27,9.29-.82,11.85,2.66,11.82,1.86,13.53-4.36,8.3-6.29,10.4-12.34,1.58-14.58,3-8.29,1.52-11.34,2.38a17.79,17.79,0,0,1-7.66.52s12-2.74,13.41-2.81,2.76.32,3.23-.51,4.74-.89,5.33-1a5.68,5.68,0,0,1,2.37-.11l1.25-.7c.11-.14.62.12,1.34-.92,1.2-1.74,1.1-.93,2.57-1.4s3.37-.56,3.8-1.1a7.33,7.33,0,0,0,.83-3.29c.16-1.52.16-2.29.43-4.28s4-11.07,4-11.07.59,6.15.63,7c.13,3-.43,2.44-1.52,5.29-.42,1.09-1.87,2.76-2.06,4.7a2.93,2.93,0,0,1-1.75,2.68c-.7.51-.71,1.42-2.46,1.81a8.43,8.43,0,0,0-3.38,1.44c-.75.51-1.26,1-1.55,1.19a14,14,0,0,0-2.37,1c.08-.6.05.2,0,.34-.26.73-1.87.8-2.66,1s-1.36,1.74-1.7,2.4-4.36.87-4.36.87a27,27,0,0,0,4.08.65c1.45,0,2.62-2.34,3.81-2.95s4-.79,5.47-1.23,4.69.1,6.15.57a22.3,22.3,0,0,0,5.75.46c2.39,0,6.24-.44,7-.49s4.19,1,5.08,1.14,2.62-1.15,3-1.31,4.15.61,6.43.9,6.47-.22,5.54-.25c-1.4,0-4.55-.51-4.55-.51a8.16,8.16,0,0,1,5.07-.59,51.38,51.38,0,0,0,7.82,1.2c1.8.13,13.06-.44,13.06-.44a43.12,43.12,0,0,0-7.06-.44,36.38,36.38,0,0,1-7.91-.68s-1.73-.37-4.95-1.3-6.27.92-7.16,1.07a9.43,9.43,0,0,1-3.84-.67s-3.3-1-4.11-2a18.39,18.39,0,0,1-2.2-2.9c-.7-1.24-1.23-5-1.53-6.76s-2.28-1.47-2.79-2.17.69-2.72.11-4.78-3-6.25-2.82-6.94,1.26-1.26,2.6-3.15c1.6-2.25,1.85-3,1.42-3.8a5.83,5.83,0,0,0-2-2.17c-.5-.28-4.4.52-4.4-1.2,0-1,1.52-5.65,1.17-6.47a4.54,4.54,0,0,1-.35-1.6l-.74-2.19c-.09-.21-.08-.25-.08-.25l.08.25c.11.22.33.64.82,1.42.93,1.48,1.12,1.16,1.36,2.6s1,3.46,1.16,4.2,1.67.31,3.07,1.87a16.79,16.79,0,0,1,1.25,3.11,5.55,5.55,0,0,1-.35,2.88c-.35.81-2.41,4-2.53,5.09"/><path class="cls-2" d="M558.07,20c-.49-1.81-.29-6.63,1.35-9,1.12-1.65.65-2.87,1.2-3.53a11,11,0,0,1,1,4.15c0,3.41-2.39,6.94-3.56,8.41"/><path class="cls-2" d="M560,22.05c1.82-.39,6-1.52,9.95-.65a22.43,22.43,0,0,1,5,2.16,39.79,39.79,0,0,1-4.44.26A30.2,30.2,0,0,1,560,22.05"/><path class="cls-2" d="M556.81,22c-1.4-.91-5.14-3.56-6-6.32-.59-1.91-.93-3.26-1.12-4.1a11.48,11.48,0,0,1,3.17,2.19c2.25,2.39,3.49,6.43,3.93,8.23"/><path class="cls-2" d="M563.18,20.21c-1.24,1-2.72,1.32-3.31.61s-.06-2.11,1.18-3.15,2.72-1.32,3.31-.62.06,2.12-1.18,3.16"/><path class="cls-2" d="M541.8,25.77c1.55.35,5.16,0,7.56,3.58a39.49,39.49,0,0,0,2.58,3.19c-.71-.14-1.88-.42-3.53-.88C546,31,542.9,27.2,541.8,25.77"/><path class="cls-2" d="M560.4,28.6c1.72-.42,6.44-1.38,9.23-.07,1.92.89,3.24,1.58,4,2-.79.2-2.45-.66-4.33-.32-2.75.48-7.2-.71-8.94-1.64"/><path class="cls-2" d="M522.66,34.52c-1.32.15-2.45-.28-2.53-1s.92-1.38,2.23-1.54,2.44.28,2.52,1-.91,1.38-2.22,1.54"/><path class="cls-2" d="M516.18,29.42c1.2-1.57,4.63-5.74,8-6.65,2.31-.63,4-1,5-1.21A16.06,16.06,0,0,1,526,24.68a30.75,30.75,0,0,1-9.77,4.74"/><path class="cls-2" d="M514.48,22.91a20.26,20.26,0,0,1-.29-8.53,16.83,16.83,0,0,1,1.56-3.94,19.15,19.15,0,0,1,.8,3.59c.42,3.77-1.35,7.17-2.07,8.88"/><path class="cls-2" d="M521,17.73c-1,.8-2.15,1-2.61.45s0-1.66,1-2.47,2.15-1,2.61-.45,0,1.66-1,2.47"/><path class="cls-2" d="M515.76,33.87c1.32.25,4.87,1.05,6.36,2.83,1,1.22,1.71,2.12,2.11,2.68-.61-.11-1.61-.31-3-.66-2-.53-3-3.18-5.46-4.85"/><path class="cls-2" d="M503.33,12.82c1.52,1,5.48,3.52,7,8.17.69,2.17,1.6,2.67,2,3.62-.71-.47-1.86-1.28-3.46-2.5-2.34-1.81-4.66-7.26-5.46-9.29"/><path class="cls-2" d="M508.09,26.67c-1.1-.74-1.66-1.84-1.24-2.46s1.65-.53,2.75.21,1.66,1.84,1.24,2.46-1.65.53-2.75-.21"/><path class="cls-2" d="M500.16,31.52c1.35-.9,4.25-3.45,8.69-2.34,1.85.45,2.75-.64,3.61-.56-.62.42-1.65,1.09-3.16,2-2.24,1.29-7.28,1.06-9.14.92"/><path class="cls-2" d="M557.05,26c-1.14.45-4.26,1.55-5.94.66-1.16-.61-2-1.1-2.42-1.41.52-.22,1.39-.55,2.62-1,1.82-.57,4.7,1.05,5.74,1.71"/><path class="cls-2" d="M475,41.72c-1.6-.24-2.79-1.16-2.66-2.07s1.54-1.45,3.14-1.21,2.8,1.15,2.66,2.06S476.59,42,475,41.72"/><path class="cls-2" d="M550.71,23.16c-1.28-.31-2.19-1.11-2-1.79s1.34-1,2.62-.66,2.2,1.1,2,1.78-1.33,1-2.62.67"/><path class="cls-2" d="M563.05,43.44c-1.34-1.12-4.93-3.89-5.18-7.18-.19-2.37-.32-3.38-.35-4.24a10.69,10.69,0,0,1,3,2.65c1.78,2.54,2.43,6.9,2.53,8.77"/><path class="cls-2" d="M567.47,35.92c-1.18-.07-4.36-.39-5.58-1.85-.84-1-1.39-1.74-1.71-2.21.55,0,1.44.09,2.69.25,1.82.24,3.88,2.82,4.6,3.81"/><path class="cls-2" d="M564.1,39.3c-.9-1-1.2-2.15-.68-2.62s1.65,0,2.54.92,1.19,2.15.68,2.62-1.65.06-2.54-.92"/><path class="cls-2" d="M515.93,23.71c1-1.27,4-4.63,6.78-5.31,1.93-.48,3.31-.75,4.15-.9a12.38,12.38,0,0,1-2.45,2.85c-2.61,2.1-4.78,1.45-8.48,3.36"/><path class="cls-2" d="M550.35,35.92c-.92.85-2.19,3.07-5.38,2.74a15.37,15.37,0,0,1-2.75-.54c.42-.4,1.13-1,2.16-1.86,1.51-1.2,4.77-.62,6-.34"/><path class="cls-2" d="M548.41,35.07c-1.29-.27-2.23-1-2.09-1.72s1.3-1,2.6-.75,2.23,1,2.09,1.71-1.3,1-2.6.76"/><path class="cls-2" d="M583.65,66.7c1.6.3,5.32,0,7.9,3.43,1.17,1.57,2.24,2.54,2.77,3.21-.74-.12-2-.37-3.67-.79-2.51-.65-5.82-4.42-7-5.85"/><path class="cls-2" d="M584.72,72.35c-.77-1-.93-2.18-.35-2.62s1.66,0,2.42,1,.93,2.19.35,2.63-1.66,0-2.42-1.06"/><path class="cls-2" d="M582.68,67.72c.31,1.45,1,5.38-.39,7.2a33.65,33.65,0,0,1-2.16,2.6,33.39,33.39,0,0,0-.62-3.31c-1-3.36,2.18-5.38,3.17-6.49"/><path class="cls-2" d="M585.39,62.32c-.77-1.17-2.75-4.46-2.67-7,0-1.73.13-3,.2-3.7a23.22,23.22,0,0,1,2.44,2.88c1.1,2,.15,6.2,0,7.82"/><path class="cls-2" d="M583.41,63.12c-1.14.45-4.25,1.55-5.93.66a26,26,0,0,1-2.42-1.41c.52-.22,1.39-.55,2.62-.95,1.81-.57,4.69,1,5.73,1.7"/><path class="cls-2" d="M576.59,59.59c-1.28-.3-2.19-1.1-2-1.78s1.34-1,2.62-.67,2.2,1.11,2,1.79-1.34,1-2.63.66"/><path class="cls-2" d="M596.27,63.28c-1.3.29-2.46,0-2.61-.71s.77-1.46,2.07-1.75,2.45,0,2.6.72-.77,1.46-2.06,1.74"/><path class="cls-2" d="M588.75,62.06a28.08,28.08,0,0,1,7.08-7.84,11.94,11.94,0,0,1,4.87-1.61,9.35,9.35,0,0,1-2.16,3.06,23.41,23.41,0,0,1-9.79,6.39"/><path class="cls-2" d="M589.23,63.44c1.5-.09,4.43-.87,6.78,2.53.91,1.31,2.21,1,2.63,1.58-.69,0-1.82.1-3.41.09-2.33,0-5-3-6-4.2"/><path class="cls-2" d="M475.11,32c1.19.85,4.49,1.19,5,5.76a24.26,24.26,0,0,0,.87,3.63c-.56-.38-1.45-1.05-2.68-2-1.78-1.48-2.86-5.76-3.2-7.35"/><path class="cls-2" d="M484.44,38.36c-.46,1.18-1.39,1.93-2.05,1.66s-.84-1.43-.37-2.62,1.39-1.92,2.06-1.66.83,1.44.36,2.62"/><path class="cls-2" d="M482.57,41.51c.9-.74,3.37-3.31,5.49-2.73a8.91,8.91,0,0,0,3,0c-.41.35-1.1.91-2.12,1.65-1.5,1.08-5.07,1.13-6.38,1.09"/><path class="cls-2" d="M476.06,42.91c.63-.35,2.36-1.26,3.41-.88.73.26,1.23.48,1.53.62a3.46,3.46,0,0,0-1.45.78c-1.42,1.64-2.82-.22-3.49-.52"/><path class="cls-2" d="M495.1,49.06c.87-1,3.23-4.53,5.39-3.6,1.3.56,2.42.08,3,.15-.39.47-1.06,1.22-2,2.23-1.46,1.45-5,1.33-6.37,1.22"/><path class="cls-2" d="M496.24,46c-.24,1.12-.94,1.91-1.58,1.78s-.94-1.15-.7-2.27.94-1.91,1.57-1.77,1,1.15.71,2.26"/><path class="cls-2" d="M489.52,43.71c1,.49,3.79.47,3.88,3.56a12,12,0,0,0,.47,2.42c-.45-.22-1.17-.6-2.16-1.19-1.42-.87-2-3.72-2.19-4.79"/><path class="cls-2" d="M475.24,55.42c1.13-.84,2.29-3.55,6.83-3.12a29.84,29.84,0,0,0,3.73,0c-.51.39-1.38,1-2.65,1.86-1.88,1.22-6.28,1.31-7.91,1.3"/><path class="cls-2" d="M481.34,49.15c.72-.06,2.67-.14,3.46.65.55.54.91,1,1.13,1.21a3.59,3.59,0,0,0-1.65.09c-2,.88-2.46-1.4-2.94-2"/><path class="cls-2" d="M486.62,52c1,.49,3.79.47,3.88,3.56A12.94,12.94,0,0,0,491,58c-.44-.22-1.17-.6-2.15-1.19-1.43-.87-2-3.72-2.19-4.79"/><path class="cls-2" d="M486.25,56.19c-.24,1.12-.94,1.91-1.58,1.78s-.94-1.15-.7-2.27.94-1.91,1.57-1.77.95,1.15.71,2.26"/><path class="cls-2" d="M567.31,70.38c-1.51-.37-5.65-1.51-7.68-3.57-1.4-1.41-2.34-2.44-2.91-3.08a26.69,26.69,0,0,1,4.14.48c2.4.74,5.21,4.8,6.45,6.17"/><path class="cls-2" d="M565.12,65.24c-.23-1.3.14-2.45.83-2.57s1.42.83,1.65,2.14-.13,2.45-.82,2.57-1.43-.83-1.66-2.14"/><path class="cls-2" d="M573,62.86c-.16,1.22-.72,4.47-2.32,5.5a27.3,27.3,0,0,1-2.41,1.42c.06-.56.19-1.48.44-2.75.39-1.86,3.21-3.58,4.29-4.17"/><path class="cls-2" d="M553.3,49.16c1.21.55,5.26,1.82,5,4.15-.17,1.41.61,2.34.72,2.95-.56-.25-1.48-.67-2.72-1.33-1.81-1-2.71-4.46-3-5.77"/><path class="cls-2" d="M554.68,48.54c.84-.67,2-3.26,4.84-2.06a12.75,12.75,0,0,0,2.39.58c-.38.31-1,.81-2,1.47-1.38.94-4.22.3-5.26,0"/><path class="cls-2" d="M559.94,50c1,.5,1.63,1.38,1.35,2s-1.34.65-2.37.15-1.63-1.38-1.35-2,1.34-.64,2.37-.15"/><path class="cls-2" d="M527.42,39.72c.53.94,2.89,2.5,1.24,5.12a13,13,0,0,0-1,2.26c-.25-.43-.63-1.15-1.12-2.18-.7-1.52.4-4.22.85-5.2"/><path class="cls-2" d="M532.27,44.51c-.78.83-1.8,1.15-2.27.71s-.22-1.47.57-2.31,1.79-1.15,2.26-.71.22,1.48-.56,2.31"/><path class="cls-2" d="M528.92,47c1.13-.7,4.43-3.37,6.21-1.85,1.08.92,2.29.79,2.86,1-.52.34-1.38.86-2.62,1.53-1.82,1-5.21-.22-6.45-.72"/><path class="cls-2" d="M549.47,24.26a17.09,17.09,0,0,1-8.21-3.08,13.58,13.58,0,0,1-2.73-3.26,8.26,8.26,0,0,1,3.87.57,21.45,21.45,0,0,1,7.07,5.77"/><path class="cls-2" d="M544.92,11.48c1,.84,4.64,3.07,3.79,5.26-.51,1.32,0,2.42,0,3-.48-.37-1.26-1-2.3-2-1.5-1.41-1.51-5-1.45-6.33"/><path class="cls-2" d="M541.13,16.41c-.82-1-1-2.23-.5-2.66s1.66.06,2.48,1.1,1,2.22.49,2.66-1.65-.06-2.47-1.1"/><path class="cls-2" d="M588.36,61.1c-.61-1.06-2.13-4-1.48-5.81A27.94,27.94,0,0,1,588,52.7c.29.49.74,1.3,1.31,2.47.82,1.72-.4,4.81-.9,5.93"/><path class="cls-2" d="M497.24,23.11c1.3-.31,5.27-1.79,6.48.22.73,1.22,1.92,1.48,2.38,1.9-.6.15-1.58.37-3,.61-2,.33-4.87-1.86-5.89-2.73"/><path class="cls-2" d="M482.34,46.84a18.9,18.9,0,0,1-8.55.92,16.48,16.48,0,0,1-4-1.41,10,10,0,0,1,3.57-1.11,20.13,20.13,0,0,1,9,1.6"/><path class="cls-2" d="M485.11,36.33c.42-1.83,2.89-6,5.47-7.3,1.78-.92,1.94-2.22,2.75-2.53-.18.84-.52,2.22-1.09,4.12-.86,2.77-5.4,5-7.13,5.71"/><path class="cls-2" d="M483,26.89c.27.91,1.79,2.36.3,5a17.73,17.73,0,0,0-1,2.25c-.13-.42-.32-1.11-.56-2.11-.32-1.47.78-4.14,1.22-5.12"/><path class="cls-2" d="M510.46,15.42c-1-.73-3.56-2.8-3.69-4.7a27.43,27.43,0,0,1-.07-2.8c.46.33,1.2.89,2.19,1.73,1.44,1.24,1.58,4.54,1.57,5.77"/><path class="cls-2" d="M507.21,58.13c-.33-1.18-1.09-4.4,0-6,.73-1.08,1.3-1.82,1.66-2.25.16.54.4,1.44.67,2.71.37,1.86-1.55,4.55-2.31,5.51"/><path class="cls-2" d="M571.8,83.18c-1.13.46-4.24,1.59-5.93.71a26.58,26.58,0,0,1-2.43-1.39c.52-.22,1.38-.56,2.62-1,1.8-.58,4.7,1,5.74,1.66"/><path class="cls-2" d="M562.59,90.38c-.6-1.18-.58-2.39,0-2.7s1.61.38,2.21,1.56.57,2.39-.05,2.71-1.61-.39-2.2-1.57"/><path class="cls-2" d="M561.67,84.39c1.32.16,4.86.76,6,2.5.78,1.19,1.27,2.06,1.56,2.61-.62-.06-.9-.34-2.29-.6-2-.41-4.62-3.34-5.26-4.51"/><path class="cls-2" d="M560.76,85c.24,1.33,1.18,3.72-1.27,7-.94,1.25-.57,2.33-1,2.9-.12-.61-.28-1.62-.45-3.06-.22-2.11,1.86-5.55,2.68-6.8"/><path class="cls-2" d="M545,81.26c.51-1.23,1.62-5.32,4-5.13,1.42.12,2.32-.69,2.93-.82-.23.57-.62,1.5-1.24,2.77-.92,1.84-4.35,2.87-5.65,3.18"/><path class="cls-2" d="M545.06,78c.13,1.13-.29,2.11-.93,2.19s-1.27-.79-1.39-1.93.28-2.11.93-2.18,1.26.79,1.39,1.92"/><path class="cls-2" d="M538,78c1.07.16,3.75-.77,4.81,2.14A13,13,0,0,0,544,82.25c-.5-.06-1.3-.2-2.42-.44-1.63-.37-3.11-2.88-3.61-3.84"/><path class="cls-2" d="M498.4,64.54s-3,4.18-4.68,4.06a8.63,8.63,0,0,0-2.94.65c.31-.45.85-1.19,1.65-2.2,1.2-1.46,4.68-2.26,6-2.51"/><path class="cls-2" d="M470.3,90.48c.31-1.45.81-5.65,2.64-7.76a29.33,29.33,0,0,1,3.23-2.82c-.13.66-.37,1.76-.8,3.33-.64,2.3-3.85,5.94-5.07,7.25"/><path class="cls-2" d="M471.7,81c-1.22.36-2.38.09-2.58-.6s.63-1.54,1.85-1.9,2.37-.08,2.57.61-.62,1.54-1.84,1.89"/><path class="cls-2" d="M467.58,73c1.19.3,5,.8,5.51,3a7.94,7.94,0,0,0,1.55,2.59c-.55-.13-1.45-.37-2.7-.77-1.83-.61-3.71-3.65-4.36-4.8"/><path class="cls-2" d="M465.9,68.93c1.85-.4,6.89-1.29,9.48.38,1.78,1.15,3,2,3.72,2.6-.85.2-2.38-.9-4.37-.59-2.92.42-7.24-1.2-8.83-2.39"/><path class="cls-2" d="M483.78,87c-.81-1.34-3.53-5.39-2.87-8a13.52,13.52,0,0,0,.16-4.23c.38.6,1,1.63,1.8,3.14,1.17,2.22,1,7.22.91,9.07"/><path class="cls-2" d="M490,76.19c-1.22.27-4.54.86-6-.34a26.5,26.5,0,0,1-2.1-1.85c.56-.14,1.49-.33,2.8-.53,1.91-.27,4.43,1.87,5.32,2.72"/><path class="cls-2" d="M485.21,79.42c-.67-.74-.9-1.63-.51-2s1.25,0,1.92.7.91,1.62.52,2-1.25,0-1.93-.7"/><path class="cls-2" d="M477.1,66.24c.62,1,.68,2,.14,2.37s-1.48-.14-2.1-1.1-.69-2-.15-2.37,1.49.14,2.11,1.1"/><path class="cls-2" d="M479.45,71c0-.92-1.09-2.62.91-4.86a18.3,18.3,0,0,0,1.41-2c0,.42,0,1.13,0,2.14,0,1.48-1.7,3.86-2.33,4.71"/><path class="cls-2" d="M472.68,72.62c.6-.27,2.28-.93,3.34-.58.73.24,1.23.44,1.54.57-.28.13.45.18,0,.63-1.34,1.27-4.2-.36-4.86-.62"/><path class="cls-2" d="M498,67.86c0-1.14.49-2.07,1.14-2.08s1.18.91,1.19,2c0-.1-.47,2.07-1.14,2.08S498,69,498,67.86"/><path class="cls-2" d="M505.13,68.07c-.89-.37-3.07-.09-4.06-2.94A16.09,16.09,0,0,0,500,62.94c.42.16,1.09.45,2,.9,1.37.68,2.68,3.26,3.13,4.23"/><path class="cls-2" d="M491,41.83c1-1.41,3.8-5.14,6.63-5.78,1.94-.45,3.32-.69,4.17-.81a8.32,8.32,0,0,1-2.34,3.16c-3.22,2.38-4.79,1.42-8.46,3.43"/><path class="cls-2" d="M470.14,52.78c.68-.65,1.26-2.68,4.27-2.57a16.36,16.36,0,0,0,2.44-.19c-.31.31-.84.8-1.61,1.47-1.15,1-4,1.23-5.1,1.29"/><path class="cls-2" d="M549.13,70.39c1.93-.57,7.19-1.9,9.76-.17a41.79,41.79,0,0,1,3.67,2.69c-.88.28-2.39-.86-4.47-.38-3,.65-7.39-.91-9-2.14"/><path class="cls-2" d="M571.87,74.65c1.23,1,4.48,4,5.17,6.85.48,1.93.75,3.3.9,4.14a23.55,23.55,0,0,1-2.75-2.49c-2.45-2.59-1.44-4.78-3.32-8.5"/><path class="cls-2" d="M491.46,16.72c1.76-.25,5.77-.87,9.22.9a23.7,23.7,0,0,1,3.77,2.5c-.82.13-2.36-.93-4.28-.77-2.81.19-7.1-1.5-8.71-2.63"/><path class="cls-2" d="M499.07,14.38c-.69-1.13-.74-2.37-.1-2.76s1.72.21,2.41,1.34.74,2.36.1,2.75-1.72-.2-2.41-1.33"/><path class="cls-2" d="M465.48,41.73c.95-.28,3.55-.91,4.83,0,.88.59,1.48,1,1.83,1.33-.43.14-1.19-.43-2.21-.2a6.72,6.72,0,0,1-4.45-1.08"/><path class="cls-2" d="M502.09,41.66a15,15,0,0,1,8-1.58c1.92.19,3.25.43,4.06.57-.63.26-1.68.66-3.21,1.18-2.27.74-7.08.11-8.85-.17"/><path class="cls-2" d="M511.45,58c-1,.51-2.09.46-2.38-.12s.3-1.46,1.32-2,2.08-.47,2.37.11-.29,1.46-1.31,2"/><path class="cls-2" d="M474.77,37.16c-1.44-.36-4.71-2.37-5.73-4.44-.71-1.42-1.74-1.57-2-2.21.67.15,1.76.44,3.27.91,2.18.72,3.88,4.36,4.44,5.74"/><path class="cls-2" d="M568.17,64.58c-.08-1.22-.17-4.53,1.2-5.85a24.36,24.36,0,0,1,2.08-1.87c0,.56.09,1.49.1,2.79,0,1.9-2.44,4.14-3.38,4.93"/><path class="cls-2" d="M571,46.62c1.52.66,5.55,2.59,6.29,5.05a37.64,37.64,0,0,1,1,3.66c-.71-.29-1.43-1.12-3-1.93-2.27-1.19-3.89-5.16-4.26-6.78"/><path class="cls-2" d="M579.58,51.67c-.1-1.23-.21-4.54,1.15-5.88a27.4,27.4,0,0,1,2.08-1.89c.05.56.11,1.49.13,2.8,0,1.9-2.42,4.17-3.36,5"/><path class="cls-2" d="M576.07,47.87c-.27-1.24.07-2.37.78-2.52s1.49.72,1.76,2-.08,2.37-.78,2.53-1.49-.73-1.76-2"/><path class="cls-2" d="M586.43,83.13c-.9-1.11-3.67-4-3.26-6.21a20.7,20.7,0,0,1,1.17-3.36c.43.5.54,1.53,1.42,2.77,1.27,1.82,1,5.41.67,6.8"/><path class="cls-2" d="M503.22,3.66c.17.88,1.35,2.24,0,4.89a20.73,20.73,0,0,0-.9,2.26c-.09-.4-.21-1.07-.35-2-.2-1.43.84-4.13,1.26-5.11"/><path class="cls-2" d="M590.52,46.51c.47,1,2.76,2.65,1,5.18a12.67,12.67,0,0,0-1.08,2.21c-.23-.44-.58-1.18-1-2.24-.63-1.55.6-4.19,1.11-5.15"/><path class="cls-2" d="M575.47,26.73c-1,.37-1.72,2.48-5.25.4-1-.59-1.68-1-2.09-1.32.47-.17,1.24-.44,2.34-.76,1.62-.44,4.1,1.07,5,1.68"/><path class="cls-2" d="M574.67,37.49c-1.21-.29-3.52.39-6.22-2.79A30.82,30.82,0,0,0,566,32.31c.56.12,1.48.35,2.79.73,1.91.58,4.83,3.38,5.87,4.45"/><path class="cls-2" d="M573.71,33.77c-1.32,0-2.38-.63-2.36-1.33s1.11-1.23,2.43-1.19,2.38.63,2.36,1.32-1.11,1.23-2.43,1.2"/><path class="cls-2" d="M512.31,54.49c1.92-.54,7.14-1.81,9.71-.09,1.77,1.19,3,2.09,3.69,2.68-.88.27-2.4-.87-4.46-.41-3,.62-7.37-1-8.94-2.18"/><path class="cls-2" d="M521.49,49.59c.93.54,3.75.68,3.66,3.77a12.46,12.46,0,0,0,.33,2.44c-.44-.24-1.13-.66-2.08-1.3-1.38-1-1.81-3.84-1.91-4.91"/><path class="cls-2" d="M478.08,60.22c1.83-.38,6.63.11,8.93,1.89,1.58,1.22,2.82.82,3.45,1.42-.84.19-2.23.46-4.2.75-2.87.39-6.79-2.8-8.18-4.06"/><path class="cls-2" d="M551.29,57.29c2-.09,7.37-.09,9.47,2.18,1.45,1.56,2.39,2.72,3,3.46-.92.06-2.12-1.4-4.24-1.44-3.08-.1-6.94-2.64-8.18-4.2"/><path class="cls-2" d="M564.87,53.57c.48,1,2.76,2.64,1,5.17A13.08,13.08,0,0,0,564.77,61c-.22-.45-.57-1.19-1-2.24-.62-1.56.61-4.19,1.11-5.15"/><path class="cls-2" d="M567,50.39c1.08.09,3.68-1,4.95,1.8a12.21,12.21,0,0,0,1.36,2.05c-.5,0-1.31-.1-2.45-.27-1.65-.25-3.29-2.66-3.86-3.58"/><path class="cls-2" d="M535.15,10.21c1.52-.68,5.52-2.81,8.44-2.21a39.92,39.92,0,0,1,4.47,1.41c-.69.33-2.07.31-3.76,1-2.48.92-7.3.31-9.15-.16"/><path class="cls-2" d="M530.78,10.26a17.54,17.54,0,0,1-6.45-5.67A18.17,18.17,0,0,1,522.62.71a17.47,17.47,0,0,1,3.21,1.88c2.17,1.65,4.24,5.95,4.95,7.67"/><path class="cls-2" d="M536.06,8.51c-1.09,1.19-2.53,1.66-3.2,1.05s-.34-2.09.75-3.29,2.52-1.66,3.2-1,.34,2.09-.75,3.29"/><path class="cls-2" d="M531.74,14.06a8.65,8.65,0,0,1-5.8,1.44,6.42,6.42,0,0,1-2.58-1.08c.49-.28,1.3-.73,2.47-1.29,1.72-.81,4.79.42,5.91.93"/><path class="cls-2" d="M527.55,12.34c-1.23-.33-2.07-1.16-1.89-1.85s1.34-1,2.56-.66,2.08,1.16,1.89,1.85-1.33,1-2.56.66"/><path class="cls-2" d="M528.58,20.52c-1.17-1.12-1.6-2.57-1-3.23s2.09-.28,3.26.84,1.6,2.56,1,3.22-2.1.29-3.27-.83"/><path class="cls-2" d="M535.5,13c.29,1.34,2.09,3.35.11,7.44A32.35,32.35,0,0,0,534.32,24c-.14-.61-.34-1.64-.58-3.11-.33-2.16,1.17-6.3,1.76-7.82"/><path class="cls-2" d="M538.23,23.29c-1.07.69-2.25.76-2.64.15s.16-1.65,1.23-2.34,2.25-.76,2.64-.16-.16,1.65-1.23,2.35"/><path class="cls-2" d="M532.43,0c.47,1,2.76,2.64,1,5.17a12.34,12.34,0,0,0-1.08,2.22c-.23-.44-.58-1.18-1-2.24-.63-1.55.6-4.19,1.11-5.15"/><path class="cls-2" d="M533.3,34.23c1.47-.61,5.36-2.51,8.2-1.94a40.92,40.92,0,0,1,4.37,1.32c-.67.29-2,.26-3.66.84-2.41.81-7.1.22-8.91-.22"/><path class="cls-2" d="M531.8,36.48c-1.12-.88-4.1-3.39-4.52-5.78-.3-1.63-.44-2.8-.51-3.51.53.39,1.37,1.07,2.53,2.09,1.67,1.5,2.32,5.65,2.5,7.2"/><path class="cls-2" d="M536.49,31.76c-.91,1-2.11,1.4-2.67.88s-.29-1.74.62-2.74,2.11-1.39,2.68-.88.28,1.74-.63,2.74"/><path class="cls-2" d="M531.57,25c.4.81,2.31,2.21.82,4.32a11.56,11.56,0,0,0-.9,1.85c-.19-.37-.48-1-.85-1.87-.52-1.29.51-3.5.93-4.3"/><path class="cls-2" d="M544,48.92c.08-1.34-.16-5.44,2-6.73a10.26,10.26,0,0,0,2.36-2.5c0,.61-.1,1.63-.26,3.06-.27,2.11-3,5.1-4.09,6.17"/><path class="cls-2" d="M542.48,45.93c.65.94.75,2,.21,2.37s-1.48-.1-2.13-1-.74-2-.21-2.37,1.49.1,2.13,1"/><path class="cls-2" d="M536.22,49.26c1-.37,2.93-2.45,5.24-.39a11.88,11.88,0,0,0,2.09,1.32c-.47.18-1.25.44-2.35.76-1.61.44-4.09-1.08-5-1.69"/><path class="cls-2" d="M510.16,38.29c-1.1-.74-1.65-1.85-1.23-2.47s1.64-.53,2.75.21,1.65,1.84,1.23,2.47-1.65.53-2.75-.21"/><path class="cls-2" d="M513.65,42c.05,1.08,1.46,3.53-1.18,5.13a12.72,12.72,0,0,0-1.88,1.6c0-.5,0-1.32,0-2.46.06-1.67,2.25-3.59,3.09-4.27"/><path class="cls-2" d="M502,54.92c-.83.69-1.91,3.31-4.79,2.18a11.94,11.94,0,0,0-2.41-.51c.38-.33,1-.84,1.94-1.53,1.35-1,4.21-.4,5.26-.14"/><path class="cls-2" d="M551.82,64.24c-1.25-.72-4.16-.71-5.86-5.14a33.61,33.61,0,0,0-1.74-3.47c.57.32,1.52.88,2.84,1.72,1.92,1.27,4,5.35,4.76,6.89"/><path class="cls-2" d="M542.74,60.8c0-1.14.43-2.09,1.07-2.11s1.21.87,1.26,2-.43,2.09-1.07,2.12-1.21-.88-1.26-2"/><path class="cls-2" d="M543.24,56.59c-.43,1.09-1.35,4.57-3.5,5.06a8.88,8.88,0,0,0-2.65,1.43c.19-.51.53-1.33,1.06-2.48.8-1.68,3.91-3.42,5.09-4"/></g></g></svg>